<svg xmlns="http://www.w3.org/2000/svg" width="203.08" height="56.539" viewBox="0 0 203.08 56.539">
  <g id="Gruppe_152" data-name="Gruppe 152" transform="translate(-459.125 -595.473)">
    <g id="Gruppe_4" data-name="Gruppe 4" transform="translate(459.125 595.473)">
      <g id="Gruppe_1" data-name="Gruppe 1" transform="translate(0.337 42.308)">
        <path id="Pfad_1" data-name="Pfad 1" d="M473.018,818.385H469.41v-5.712H464.4v5.712h-3.608V804.354H464.4v5.512h5.011v-5.512h3.608Z" transform="translate(-460.791 -804.354)" fill="#0179c0"/>
        <path id="Pfad_2" data-name="Pfad 2" d="M530.036,818.385h-3.909l5.312-14.031h4.009l5.312,14.031h-3.909l-.9-2.506h-5.011Zm1.8-5.111h3.207l-1.6-4.71Z" transform="translate(-512.899 -804.354)" fill="#0179c0"/>
        <path id="Pfad_3" data-name="Pfad 3" d="M610.385,804.354h3.608v10.222a3.444,3.444,0,0,1-4.009,4.009h-4.61a3.444,3.444,0,0,1-4.009-4.009V804.354h3.608v10.222a1.063,1.063,0,0,0,1.2,1.2h3.007a1.063,1.063,0,0,0,1.2-1.2Z" transform="translate(-572.903 -804.354)" fill="#0179c0"/>
        <path id="Pfad_4" data-name="Pfad 4" d="M672.823,815.478q5.492.3,7.436.3a.933.933,0,0,0,1-1v-1.8h-4.61a3.444,3.444,0,0,1-4.009-4.009v-.6a3.444,3.444,0,0,1,4.009-4.009h7.036v2.806h-6.234a1.063,1.063,0,0,0-1.2,1.2v.4a1.063,1.063,0,0,0,1.2,1.2h3.608a3.3,3.3,0,0,1,3.808,3.808v1a3.3,3.3,0,0,1-3.808,3.808q-1.023,0-2.165-.04l-1.844-.08q-2.044-.1-4.229-.281Z" transform="translate(-629.749 -804.354)" fill="#0179c0"/>
        <path id="Pfad_5" data-name="Pfad 5" d="M739.357,814.175l3.407-9.821h3.909l-5.312,14.031h-4.009l-5.312-14.031h3.909Z" transform="translate(-677.121 -804.354)" fill="#0179c0"/>
        <path id="Pfad_6" data-name="Pfad 6" d="M820.382,818.385H809.258V804.354h11.124v2.806h-7.516v2.706h5.913v2.806h-5.913v2.906h7.516Z" transform="translate(-738.704 -804.354)" fill="#0179c0"/>
        <path id="Pfad_7" data-name="Pfad 7" d="M872.121,804.354h8.418a3.444,3.444,0,0,1,4.009,4.009v1.8a5.058,5.058,0,0,1-.551,2.586,2.7,2.7,0,0,1-1.754,1.223l2.505,4.41H880.84l-2.305-4.209h-2.806v4.209h-3.608Zm8.819,4.009a1.063,1.063,0,0,0-1.2-1.2h-4.009v4.209h4.009a1.063,1.063,0,0,0,1.2-1.2Z" transform="translate(-788.839 -804.354)" fill="#0179c0"/>
        <path id="Pfad_8" data-name="Pfad 8" d="M948.093,804.354l2.405,9.02,2.1-9.02h3.909L952.7,818.385h-3.808l-2.405-8.719-2.405,8.719h-3.808l-3.808-14.031h3.908l2.1,9.02,2.405-9.02Z" transform="translate(-840.157 -804.354)" fill="#0179c0"/>
        <path id="Pfad_9" data-name="Pfad 9" d="M1032.443,818.385h-3.909l5.312-14.031h4.009l5.312,14.031h-3.909l-.9-2.506h-5.011Zm1.8-5.111h3.207l-1.6-4.71Z" transform="translate(-913.583 -804.354)" fill="#0179c0"/>
        <path id="Pfad_10" data-name="Pfad 10" d="M1109.359,815.579h7.317v2.806h-10.924V804.354h3.608Z" transform="translate(-975.166 -804.354)" fill="#0179c0"/>
        <path id="Pfad_11" data-name="Pfad 11" d="M1157.622,818.385h-3.608V807.16h-4.209v-2.806h12.026v2.806h-4.209Z" transform="translate(-1010.301 -804.354)" fill="#0179c0"/>
        <path id="Pfad_12" data-name="Pfad 12" d="M1227.256,818.385h-11.125V804.354h11.125v2.806h-7.517v2.706h5.913v2.806h-5.913v2.906h7.517Z" transform="translate(-1063.198 -804.354)" fill="#0179c0"/>
        <path id="Pfad_13" data-name="Pfad 13" d="M1278.994,804.354h8.418a3.444,3.444,0,0,1,4.009,4.009v1.8a5.057,5.057,0,0,1-.551,2.586,2.7,2.7,0,0,1-1.754,1.223l2.505,4.41h-3.908l-2.305-4.209H1282.6v4.209h-3.608Zm8.819,4.009a1.063,1.063,0,0,0-1.2-1.2H1282.6v4.209h4.009a1.063,1.063,0,0,0,1.2-1.2Z" transform="translate(-1113.333 -804.354)" fill="#0179c0"/>
        <path id="Pfad_14" data-name="Pfad 14" d="M1357.135,808.764a3.775,3.775,0,0,1-1.443,2.947q-.442.38-.962.761l-4.31,3.107h6.715v2.806h-10.824v-3.808l7.216-5.211v-1a1.063,1.063,0,0,0-1.2-1.2h-5.612v-2.806h6.414a3.444,3.444,0,0,1,4.009,4.009Z" transform="translate(-1167.02 -804.354)" fill="#012269"/>
        <path id="Pfad_15" data-name="Pfad 15" d="M1408.175,815.579h-7.416v-2.806l4.811-8.418h4.009l-4.81,8.418h3.407v-3.007h3.608v3.007h1.4v2.806h-1.4v2.806h-3.608Z" transform="translate(-1210.444 -804.354)" fill="#012269"/>
      </g>
      <g id="Gruppe_2" data-name="Gruppe 2" transform="translate(0 0)">
        <path id="Pfad_16" data-name="Pfad 16" d="M497.626,596.788l-8.994,6.567-9-6.57-6.121,4.471v-5.783h-5.042v9.465l-9.348,6.827v22.957h59.013V611.765Zm-29.153,32.893h-4.306V614.327l4.306-3.146Zm26.633,0H473.515V607.5l6.121-4.471,15.47,11.3Zm17.99,0H500.147V611.766l-7.241-5.288,4.72-3.447,15.47,11.3Z" transform="translate(-459.125 -595.473)" fill="#012269"/>
        <rect id="Rechteck_3" data-name="Rechteck 3" width="12.722" height="5.041" transform="translate(18.111 20.221)" fill="#0179c0"/>
      </g>
      <g id="Gruppe_3" data-name="Gruppe 3" transform="translate(17.887 27.128)">
        <path id="Pfad_17" data-name="Pfad 17" d="M550.528,729.416a1.611,1.611,0,0,1,1.8,1.8V733.1a1.611,1.611,0,0,1-1.8,1.8h-3.057v-5.488Zm.392,1.8a.624.624,0,0,0-.706-.705h-1.333v3.293h1.333a.624.624,0,0,0,.706-.706Z" transform="translate(-547.471 -729.416)" fill="#0179c0"/>
        <path id="Pfad_18" data-name="Pfad 18" d="M577.008,734.9h-2.822v-1.1h.706v-3.293h-.706v-1.1h2.822v1.1H576.3v3.293h.706Z" transform="translate(-568.777 -729.416)" fill="#0179c0"/>
        <path id="Pfad_19" data-name="Pfad 19" d="M595.96,734.9h-4.351v-5.488h4.351v1.1h-2.94v1.058h2.312v1.1H593.02v1.137h2.94Z" transform="translate(-582.672 -729.416)" fill="#0179c0"/>
      </g>
    </g>
  </g>
</svg>
