<svg id="Gruppe_5" data-name="Gruppe 5" xmlns="http://www.w3.org/2000/svg" width="77.627" height="67.864" viewBox="0 0 77.627 67.864">
  <path id="Pfad_274" data-name="Pfad 274" d="M2519.9,431.016h36.078c.344-8.69-3.3-14.953-11.107-18.76a12.214,12.214,0,1,0-14.646-19.523,11.6,11.6,0,0,0-4.375,7.957,12.151,12.151,0,0,0,5.188,11.554C2523.186,416.1,2519.562,422.347,2519.9,431.016Zm-4.548.039c0-.692,0-1.318,0-1.943a22,22,0,0,1,5.038-14.271,7.238,7.238,0,0,0,1.67-4.342,9.392,9.392,0,0,0-15.791-7.444,9.2,9.2,0,0,0-2.333,10.268,30.3,30.3,0,0,0,2.138,3.634c-5.235,3.147-7.348,7.972-6.893,14.1ZM2529.225,373l8.718,7.745,8.714-7.748-3.021-3.388-3.452,3.043v-9.449h-4.566v9.387l-3.373-2.983Zm-10.084,8.067,6.022,5.03,2.913-3.484-6.019-5.034Zm31.576,5.03,6.019-5.036-2.911-3.484-6.023,5.032Zm-30.512,8.16,1.721-4.2-5.361-2.207-1.728,4.2Zm39.1-6.423-5.366,2.216,1.736,4.2,5.363-2.213Z" transform="translate(-2499.122 -363.206)" fill="#0179c0"/>
  <path id="Pfad_275" data-name="Pfad 275" d="M2810.018,590.286H2793.8c0-.619,0-1.191,0-1.762a21.746,21.746,0,0,0-4.739-14.063,8.135,8.135,0,0,1-2-5.149,9.306,9.306,0,0,1,1.565-5.365,9.4,9.4,0,0,1,17.168,4.012,9.22,9.22,0,0,1-2.548,7.706c-.1.109-.2.222-.342.38.636.444,1.27.84,1.852,1.3a13.257,13.257,0,0,1,5.149,9.178,3.094,3.094,0,0,0,.112.429Z" transform="translate(-2732.391 -522.422)" fill="#0179c0"/>
  <path id="Pfad_276" data-name="Pfad 276" d="M2608.473,545.249c-.34-8.669,3.284-14.919,11.137-18.773a12.152,12.152,0,0,1-5.188-11.555,11.6,11.6,0,0,1,4.375-7.957,12.214,12.214,0,1,1,14.646,19.523c7.806,3.808,11.452,10.07,11.107,18.76Z" transform="translate(-2587.693 -477.439)" fill="#0179c0"/>
  <path id="Pfad_277" data-name="Pfad 277" d="M2515.354,590.254h-16.171c-.454-6.128,1.658-10.952,6.893-14.1a30.3,30.3,0,0,1-2.138-3.634,9.2,9.2,0,0,1,2.333-10.268,9.392,9.392,0,0,1,15.791,7.444,7.238,7.238,0,0,1-1.67,4.342,22,22,0,0,0-5.038,14.271C2515.351,588.937,2515.354,589.563,2515.354,590.254Z" transform="translate(-2499.122 -522.405)" fill="#0179c0"/>
  <path id="Pfad_278" data-name="Pfad 278" d="M2657.669,373l3.021-3.393,3.373,2.983v-9.387h4.566v9.449l3.452-3.043L2675.1,373l-8.714,7.748Z" transform="translate(-2627.566 -363.206)" fill="#0179c0"/>
  <path id="Pfad_279" data-name="Pfad 279" d="M2604.556,442.411l2.916-3.488,6.019,5.034-2.913,3.484Z" transform="translate(-2584.538 -424.547)" fill="#0179c0"/>
  <path id="Pfad_280" data-name="Pfad 280" d="M2758.424,447.434l-2.916-3.488,6.023-5.032,2.911,3.484Z" transform="translate(-2706.829 -424.54)" fill="#0179c0"/>
  <path id="Pfad_281" data-name="Pfad 281" d="M2587.256,499.412l-5.368-2.211,1.728-4.2,5.361,2.207Z" transform="translate(-2566.174 -468.357)" fill="#0179c0"/>
  <path id="Pfad_282" data-name="Pfad 282" d="M2793.219,492.94l1.731,4.2-5.363,2.213-1.735-4.2Z" transform="translate(-2733.032 -468.308)" fill="#0179c0"/>
</svg>
