<svg id="Gruppe_151" data-name="Gruppe 151" xmlns="http://www.w3.org/2000/svg" width="55.805" height="71.317" viewBox="0 0 55.805 71.317">
  <path id="Pfad_283" data-name="Pfad 283" d="M3161.9,666.893a5.875,5.875,0,0,1-.669-.858c-.452-.861-.847-1.751-1.281-2.621a4.305,4.305,0,0,0-5.313-2.4c-1.029.276-2.045.605-3.085.828a1.184,1.184,0,0,1-.98-.266,1.143,1.143,0,0,1-.108-1c1.481-3.368,3.006-6.716,4.5-10.021a28.364,28.364,0,0,0,2.75,1.99,8.746,8.746,0,0,0,9.957-.857,6.347,6.347,0,0,1,2.651-1.574c-.1.259-.161.45-.243.631q-3.435,7.6-6.885,15.184a5.55,5.55,0,0,1-.734.972Z" transform="translate(-3144.306 -595.576)" fill="#0179c0"/>
  <path id="Pfad_284" data-name="Pfad 284" d="M3294.522,666.48a3.376,3.376,0,0,1-.623-.717q-3.588-7.869-7.14-15.754c-.035-.077-.038-.168.062-.4a16.5,16.5,0,0,1,1.832,1.151,10.019,10.019,0,0,0,4.239,2.281,9.043,9.043,0,0,0,8.549-2.516c.148-.141.268-.314.46-.543.148.286.256.475.346.674q2.077,4.588,4.152,9.177c.207.456.428.9.039,1.358s-.872.3-1.35.164q-1.4-.4-2.813-.773a4.292,4.292,0,0,0-5.184,2.3c-.465.906-.872,1.843-1.343,2.746a5.786,5.786,0,0,1-.669.857Z" transform="translate(-3256.868 -595.163)" fill="#0179c0"/>
  <path id="Pfad_285" data-name="Pfad 285" d="M3127.9,386.113a9.154,9.154,0,0,0-7.629-9.519,5.593,5.593,0,0,1-4.312-7.8,6.41,6.41,0,0,1,2.154-2.5,8.948,8.948,0,0,0,3.683-8.188,10.615,10.615,0,0,0-1.316-4,5.261,5.261,0,0,1,.376-5.487,5.356,5.356,0,0,1,5.8-2.361,10.74,10.74,0,0,0,5.159.235,8.8,8.8,0,0,0,6.24-5.185,5.741,5.741,0,0,1,4.405-3.727,5.477,5.477,0,0,1,5.873,2.9,11.56,11.56,0,0,0,2.41,3.706,8.782,8.782,0,0,0,8.5,2.233c2.406-.616,4.542-.352,6.223,1.581a5.215,5.215,0,0,1,.863,6.081,10.613,10.613,0,0,0-1.349,4.905,8.83,8.83,0,0,0,3.594,7.2,6.213,6.213,0,0,1,2.588,3.573,5.556,5.556,0,0,1-4.137,6.709,10.88,10.88,0,0,0-4.358,1.725,8.845,8.845,0,0,0-3.75,7.613,5.94,5.94,0,0,1-1.766,4.858,5.491,5.491,0,0,1-7.256.292,10.257,10.257,0,0,0-5.166-2.54,8.866,8.866,0,0,0-7.087,1.975,6.646,6.646,0,0,1-3.14,1.695,5.577,5.577,0,0,1-6.6-5.634C3127.9,386.345,3127.9,386.229,3127.9,386.113Zm15.412-1.824a18.331,18.331,0,1,0-18.23-18.376A18.3,18.3,0,0,0,3143.31,384.289Z" transform="translate(-3115.5 -337.497)" fill="#0179c0"/>
  <path id="Pfad_286" data-name="Pfad 286" d="M3204.974,415.077a14.909,14.909,0,1,1-15.006,14.721A14.955,14.955,0,0,1,3204.974,415.077Zm-2.289,16.4c-.068-.027-.1-.03-.108-.045-.527-.734-1.049-1.472-1.578-2.2a1.723,1.723,0,1,0-2.8,1.957c.777,1.125,1.566,2.243,2.354,3.361.917,1.3,1.768,1.447,3.046.516q4.3-3.134,8.6-6.274a3.277,3.277,0,0,0,.533-.444,1.688,1.688,0,0,0,.4-1.676,1.6,1.6,0,0,0-1.277-1.149,1.933,1.933,0,0,0-1.614.457c-2.314,1.706-4.64,3.4-6.963,5.091C3203.076,431.217,3202.867,431.354,3202.685,431.479Z" transform="translate(-3176.976 -401.544)" fill="#0179c0"/>
</svg>
