<svg id="Gruppe_150" data-name="Gruppe 150" xmlns="http://www.w3.org/2000/svg" width="67" height="67.243" viewBox="0 0 67 67.243">
  <path id="Pfad_265" data-name="Pfad 265" d="M2005.915,489.28a23.956,23.956,0,1,1,24,23.978A24.009,24.009,0,0,1,2005.915,489.28Zm45.515-.051a21.559,21.559,0,1,0-21.531,21.632A21.595,21.595,0,0,0,2051.43,489.23Z" transform="translate(-1996.378 -446.015)" fill="#0179c0"/>
  <path id="Pfad_266" data-name="Pfad 266" d="M2236.171,402.779l7.149-8.229,7.16,8.243-.065.2c-.613,0-1.227,0-1.84,0-1.3.006-1.673.373-1.674,1.674q0,13.243,0,26.486c0,1.545-.3,1.851-1.835,1.852h-1.818c0-1.016.045-1.969-.008-2.917A25.968,25.968,0,0,0,2240.012,419a2.459,2.459,0,0,1-.284-1.121c-.019-4.426-.011-8.852-.013-13.278,0-1.219-.347-1.581-1.579-1.621-.627-.02-1.254,0-1.881,0Z" transform="translate(-2183.48 -388.549)" fill="#0179c0"/>
  <path id="Pfad_267" data-name="Pfad 267" d="M1955.032,402.785l7.15-8.228,7.215,8.3a2.767,2.767,0,0,1-.513.129c-.514.013-1.028,0-1.543.007-1.174.013-1.558.394-1.559,1.56,0,3.959-.033,7.918.017,11.876a7.411,7.411,0,0,1-.842,3.67,25.242,25.242,0,0,0-2.774,12.191c0,.207,0,.414,0,.692-.883,0-1.722.054-2.549-.018a1.09,1.09,0,0,1-1.027-1.14c-.013-.257-.01-.515-.01-.773q0-13.106,0-26.212c0-1.511-.3-1.825-1.783-1.865-.576-.016-1.153,0-1.729,0Z" transform="translate(-1955.032 -388.555)" fill="#0179c0"/>
  <path id="Pfad_268" data-name="Pfad 268" d="M2095.3,370.827l7.205-8.3,7.179,8.267-.068.188c-.687,0-1.373,0-2.06,0-1.041.008-1.443.4-1.448,1.441-.01,2.108,0,4.215,0,6.323v.731h-7.2v-.676c0-2.108.005-4.215,0-6.322,0-1.1-.375-1.468-1.466-1.5q-.911-.029-1.821-.067A1.954,1.954,0,0,1,2095.3,370.827Z" transform="translate(-2069.013 -362.531)" fill="#0179c0"/>
  <path id="Pfad_269" data-name="Pfad 269" d="M2069.835,510.09a19.157,19.157,0,1,1-19.12-19.2A19.228,19.228,0,0,1,2069.835,510.09Zm-20.36-7.264q0,3.477,0,6.953a1.307,1.307,0,0,0,.612,1.325c2.414,1.225,4.832,2.444,7.264,3.634a1.153,1.153,0,0,0,1.567-.511,1.194,1.194,0,0,0-.516-1.623c-.2-.121-.414-.216-.622-.321-1.752-.88-3.493-1.783-5.263-2.624a1,1,0,0,1-.645-1.073c.021-4.12.013-8.241.009-12.362a3.465,3.465,0,0,0-.08-.9,1.168,1.168,0,0,0-2.239,0,3.638,3.638,0,0,0-.08.9Q2049.468,499.525,2049.475,502.826Z" transform="translate(-2017.184 -466.83)" fill="#0179c0"/>
</svg>
