<svg id="Gruppe_4" data-name="Gruppe 4" xmlns="http://www.w3.org/2000/svg" width="67.38" height="67.359" viewBox="0 0 67.38 67.359">
  <path id="Pfad_270" data-name="Pfad 270" d="M1383.326,389.971c.088-.314.169-.629.264-.941a5.915,5.915,0,0,1,5.481-4.18c1.4-.03,2.794-.005,4.2-.005a28.315,28.315,0,0,0,.175,2.989,5.8,5.8,0,0,0,5.687,4.888q7.334.049,14.669,0a5.888,5.888,0,0,0,5.836-5.831c.013-.654,0-1.309,0-2.066,1.955.122,3.886-.251,5.775.275a5.778,5.778,0,0,1,4.206,5.38c.049,4.691.018,9.383.018,14.074a.61.61,0,0,1-.032.152c-1.177-.273-2.336-.6-3.515-.8a16.382,16.382,0,0,0-7.54.5,3.952,3.952,0,0,1-1.094.159q-12.038.013-24.076.009a1.978,1.978,0,1,0-.05,3.945q4.539,0,9.078,0h8.948c-.913,1.27-1.8,2.53-2.729,3.758-.115.152-.46.181-.7.181-4.868.01-9.736,0-14.6.011a1.963,1.963,0,0,0-1.913,2.79,1.993,1.993,0,0,0,1.973,1.155q6.381-.01,12.762,0h.72l-.559,3.947h-.678c-4.1,0-8.2-.006-12.3,0a1.963,1.963,0,0,0-1.919,2.787,1.99,1.99,0,0,0,1.971,1.159q6.348-.009,12.7,0h.583l1.349,3.947h-.716q-6.973,0-13.946,0a1.964,1.964,0,0,0-1.916,2.829,2.021,2.021,0,0,0,2,1.119c5.219-.008,10.438.03,15.656-.03a3.59,3.59,0,0,1,2.808,1.1,38.281,38.281,0,0,0,3.737,2.87h-.6q-10.821,0-21.642,0a1.968,1.968,0,0,0-1.945,2.852,1.994,1.994,0,0,0,1.944,1.1q5.69-.01,11.38,0h14.406c1.768,0,2.366-.5,2.641-2.275a17.729,17.729,0,0,0,7.826-1.076c0,.53.007.977,0,1.423a44.578,44.578,0,0,1-.124,4.855,5.68,5.68,0,0,1-4.7,4.854,2.1,2.1,0,0,0-.3.112h-36.053c-.166-.048-.33-.1-.5-.144a5.9,5.9,0,0,1-4.352-3.983c-.115-.327-.189-.669-.282-1Zm23.231,6.709q-6.573,0-13.146,0a2.01,2.01,0,0,0-2.016,1.191,1.971,1.971,0,0,0,1.969,2.757q8.644.01,17.287,0,4.47,0,8.94,0a1.978,1.978,0,1,0,.047-3.946Q1413.1,396.67,1406.557,396.681Z" transform="translate(-1383.326 -380.627)" fill="#0179c0"/>
  <path id="Pfad_271" data-name="Pfad 271" d="M1679.269,662.989a6.091,6.091,0,0,1-2.864-1.871c-1.6-1.651-3.271-3.238-4.866-4.895a3.925,3.925,0,0,1,1.833-6.575,3.7,3.7,0,0,1,3.656.933c1.946,1.9,3.889,3.8,5.762,5.765a3.928,3.928,0,0,1-1.777,6.494c-.145.044-.285.1-.428.149Z" transform="translate(-1616.504 -595.63)" fill="#0179c0"/>
  <path id="Pfad_272" data-name="Pfad 272" d="M1550.913,527.385l2.962,2.883-2.819,2.812-2.907-2.945a13.143,13.143,0,0,1-11.593,2.02,12.715,12.715,0,0,1-7.244-5.353,13.157,13.157,0,0,1,19.1-17.6A13.279,13.279,0,0,1,1550.913,527.385Zm-12.508-6.874c-.778-.793-1.488-1.537-2.22-2.257a1.964,1.964,0,0,0-2.876-.1,1.988,1.988,0,0,0,.093,2.877q1.755,1.778,3.534,3.533a1.965,1.965,0,0,0,2.972,0c.831-.812,1.647-1.639,2.469-2.46,1.612-1.612,3.239-3.209,4.83-4.841a1.958,1.958,0,0,0-.851-3.338,1.992,1.992,0,0,0-2.021.64C1542.387,516.529,1540.434,518.479,1538.4,520.511Z" transform="translate(-1500.122 -479.395)" fill="#0179c0"/>
  <path id="Pfad_273" data-name="Pfad 273" d="M1466.809,370.692q-3.485,0-6.971,0a2.012,2.012,0,0,1-2.239-2.229c0-1.074-.01-2.148,0-3.222a2.609,2.609,0,0,1,2.7-2.7q6.511-.015,13.021,0a2.61,2.61,0,0,1,2.7,2.7q.019,1.677,0,3.353a1.978,1.978,0,0,1-2.105,2.1C1471.545,370.7,1469.177,370.692,1466.809,370.692Z" transform="translate(-1443.651 -362.532)" fill="#0179c0"/>
</svg>
